<svg xmlns="http://www.w3.org/2000/svg" width="7466.816" height="7454.155" viewBox="0 0 7.000141 6.9882706" id="svg2"><defs id="defs4"><style id="style4297">.cls-1{fill:#fff;}</style></defs><g id="layer1"><path d="M.723 0C.553 0 .38.065.25.196L.244.2c-.263.262-.264.684-.002.948l2.314 2.33L.197 5.82c-.26.263-.264.684 0 .947l.002.005c.26.264.682.265.946.003L3.504 4.43 5.85 6.79c.262.263.684.264.947.003l.005-.003c.262-.262.265-.684.003-.947L4.46 3.483 6.788 1.17c.264-.263.265-.685.003-.948L6.79.217c-.262-.264-.683-.265-.947-.003L3.513 2.53 1.196.2C1.066.07.894.004.723.003z" id="rect4301"/></g><style id="style4137">.st0{fill:#797979;}</style><style id="style4137-0">.st0{fill:#797979;}</style><style id="style4212">.st0{fill:#797979;}</style></svg>