<svg xmlns="http://www.w3.org/2000/svg" id="svg2" viewBox="0 0 12.020056 11.998275" height="12798.159" width="12821.392"><defs id="defs4"><style id="style4297">.cls-1{fill:#fff;}</style></defs><g id="layer1"><path id="rect4301" d="M1.242 0C.948 0 .652.112.427.337L.42.343C-.03.793-.032 1.517.417 1.97l3.974 4L.34 9.993c-.45.45-.454 1.174-.004 1.626l.006.008c.45.452 1.174.454 1.626.005l4.05-4.027 4.027 4.052c.45.452 1.175.454 1.627.005l.008-.006c.45-.45.454-1.174.005-1.626L7.658 5.978l3.998-3.973c.452-.45.455-1.175.005-1.627L11.656.37c-.45-.452-1.174-.455-1.626-.006l-4 3.976L2.054.342C1.83.116 1.535.002 1.242 0z"/></g><style id="style4137">.st0{fill:#797979;}</style><style id="style4137-0">.st0{fill:#797979;}</style><style id="style4212">.st0{fill:#797979;}</style></svg>