<svg xmlns="http://www.w3.org/2000/svg" width="3713.824" height="9066.644" viewBox="0 0 3.48171 8.4999788" id="svg2"><defs id="defs4"><style id="style4297">.cls-1{fill:#fff;}</style></defs><g id="layer1"><path style="line-height:125%" d="M2.5 0c-.27 0-.5.097-.694.29-.193.196-.29.43-.29.703 0 .274.097.508.29.702.194.19.424.285.694.285.27 0 .5-.094.69-.285.194-.194.292-.428.292-.702 0-.273-.098-.507-.292-.702C3 .098 2.77 0 2.5 0zm-.915 2.878c-.22 0-.453.042-.7.13-.246.08-.505.18-.776.3L0 3.795c.08-.033.175-.068.285-.104.114-.035.222-.052.33-.052.216 0 .364.038.44.117.077.08.116.22.116.423 0 .11-.013.234-.04.37-.023.134-.053.276-.09.427L.63 6.55c-.037.166-.064.316-.08.45-.017.128-.026.256-.026.382 0 .324.11.593.33.805.224.21.537.313.937.313.26 0 .488-.038.685-.113.197-.072.462-.18.792-.32l.11-.486c-.058.03-.15.065-.276.105-.126.036-.24.053-.34.053-.213 0-.363-.036-.45-.112-.086-.075-.13-.22-.13-.428 0-.083.014-.204.04-.366.028-.16.057-.306.09-.432l.41-1.57c.04-.143.068-.302.082-.474.016-.173.025-.294.025-.362 0-.33-.11-.6-.327-.804-.213-.208-.518-.312-.914-.312z" id="text4317" font-size="30.926" font-family="sans-serif" letter-spacing="0" word-spacing="0"/></g><style id="style4137">.st0{fill:#797979;}</style><style id="style4137-0">.st0{fill:#797979;}</style><style id="style4212">.st0{fill:#797979;}</style></svg>