<svg xmlns="http://www.w3.org/2000/svg" width="5551.534" height="9068.73" viewBox="0 0 5.2045636 8.5019345" id="svg2"><defs id="defs4"><style id="style4297">.cls-1{fill:#fff;}</style></defs><g id="layer1"><path style="line-height:0%" d="M2.377.002c-.42 0-.818.08-1.193.24C.816.395.494.615.22.898c-.147.146-.22.307-.22.483 0 .208.1.387.3.54.114.092.244.14.39.14.2 0 .39-.087.574-.255.32-.284.692-.424 1.113-.424.413 0 .76.127 1.035.38.276.252.412.57.412.953 0 .498-.152.866-.46 1.103-.305.238-.71.356-1.216.356-.2 0-.364.07-.494.207-.13.13-.195.294-.195.493v.873c0 .2.064.366.194.504.13.13.295.195.494.195.2 0 .364-.065.495-.195.13-.138.195-.305.195-.504V5.32c0-.023.018-.04.057-.056.696-.108 1.256-.376 1.677-.805.42-.43.63-1.012.63-1.747 0-.498-.125-.954-.378-1.367-.252-.42-.592-.75-1.02-.99C3.373.12 2.897.003 2.376.003zM2.09 6.928c-.222 0-.393.06-.516.183-.115.116-.174.285-.174.507v.196c0 .222.06.395.174.517.123.115.294.172.516.172h.15c.222 0 .39-.057.506-.172.123-.122.184-.295.184-.518v-.195c0-.222-.06-.39-.184-.506-.115-.12-.284-.182-.506-.182h-.15z" id="text4324" font-size="33.415" font-family="sans-serif" letter-spacing="0" word-spacing="0"/></g><style id="style4137">.st0{fill:#797979;}</style><style id="style4137-0">.st0{fill:#797979;}</style><style id="style4212">.st0{fill:#797979;}</style></svg>